<mxfile host="app.diagrams.net" modified="2021-07-21T10:15:42.013Z" agent="5.0 (Windows NT 10.0; Win64; x64) AppleWebKit/537.36 (KHTML, like Gecko) Chrome/91.0.4472.164 Safari/537.36" etag="ht6ccHuyPaBZ9Ppx6jeZ" version="14.8.3" type="github">
  <diagram name="Page-1" id="0783ab3e-0a74-02c8-0abd-f7b4e66b4bec">
    <mxGraphModel dx="1629" dy="904" grid="1" gridSize="10" guides="1" tooltips="1" connect="1" arrows="1" fold="1" page="1" pageScale="1" pageWidth="850" pageHeight="1100" background="none" math="0" shadow="0">
      <root>
        <mxCell id="0" />
        <mxCell id="1" parent="0" />
        <mxCell id="1c1d494c118603dd-1" value="Pool" style="swimlane;html=1;childLayout=stackLayout;startSize=20;rounded=0;shadow=0;comic=0;labelBackgroundColor=none;strokeWidth=1;fontFamily=Verdana;fontSize=12;align=center;" parent="1" vertex="1">
          <mxGeometry x="40" y="20" width="1560" height="990" as="geometry" />
        </mxCell>
        <mxCell id="1c1d494c118603dd-2" value="UI" style="swimlane;html=1;startSize=20;" parent="1c1d494c118603dd-1" vertex="1">
          <mxGeometry y="20" width="250" height="970" as="geometry" />
        </mxCell>
        <mxCell id="fZkrWNqtU7C_VIOHloBP-9" value="" style="group" vertex="1" connectable="0" parent="1c1d494c118603dd-2">
          <mxGeometry x="10" y="50" width="230" height="140" as="geometry" />
        </mxCell>
        <mxCell id="fZkrWNqtU7C_VIOHloBP-2" value="CMR" style="whiteSpace=wrap;html=1;" vertex="1" parent="fZkrWNqtU7C_VIOHloBP-9">
          <mxGeometry width="230" height="42" as="geometry" />
        </mxCell>
        <mxCell id="fZkrWNqtU7C_VIOHloBP-8" value="&lt;pre style=&quot;font-family: &amp;#34;jetbrains mono&amp;#34; , monospace&quot;&gt;&lt;pre style=&quot;font-family: &amp;#34;jetbrains mono&amp;#34; , monospace&quot;&gt;&lt;span style=&quot;background-color: rgb(255 , 255 , 255)&quot;&gt;+TotalPackageAmount (int);&lt;br&gt;+PalletAmount (int);&lt;br&gt;+GrossWeight (decimal);&lt;br&gt;+IntercomersId (int);&lt;br&gt;+TransferOfOwnershipDate (DateTime);&lt;br&gt;+LicensePlate (string);&lt;/span&gt;&lt;/pre&gt;&lt;/pre&gt;" style="whiteSpace=wrap;html=1;align=left;" vertex="1" parent="fZkrWNqtU7C_VIOHloBP-9">
          <mxGeometry y="42" width="230" height="98" as="geometry" />
        </mxCell>
        <mxCell id="fZkrWNqtU7C_VIOHloBP-13" value="&#xa;&#xa;&lt;span style=&quot;color: rgb(0, 0, 0); font-family: helvetica; font-size: 12px; font-style: normal; font-weight: 400; letter-spacing: normal; text-align: center; text-indent: 0px; text-transform: none; word-spacing: 0px; background-color: rgb(248, 249, 250); display: inline; float: none;&quot;&gt;...&lt;/span&gt;&#xa;&#xa;" style="rounded=0;whiteSpace=wrap;html=1;" vertex="1" parent="1c1d494c118603dd-2">
          <mxGeometry x="60" y="250" width="120" height="60" as="geometry" />
        </mxCell>
        <mxCell id="fZkrWNqtU7C_VIOHloBP-11" value="" style="group" vertex="1" connectable="0" parent="1c1d494c118603dd-2">
          <mxGeometry x="15" y="380" width="220" height="150" as="geometry" />
        </mxCell>
        <mxCell id="fZkrWNqtU7C_VIOHloBP-7" value="GoodDeclaration" style="whiteSpace=wrap;html=1;" vertex="1" parent="fZkrWNqtU7C_VIOHloBP-11">
          <mxGeometry width="220.00000000000003" height="50" as="geometry" />
        </mxCell>
        <mxCell id="fZkrWNqtU7C_VIOHloBP-10" value="&lt;pre style=&quot;font-family: &amp;#34;jetbrains mono&amp;#34; , monospace&quot;&gt;&lt;span style=&quot;background-color: rgb(255 , 255 , 255)&quot;&gt;+DeclarationNumber (long);&lt;br&gt;+TotalCustomFees (decimal);&lt;br&gt;+TotalCustomDuties (decimal);&lt;br&gt;+TotalVat (decimal);&lt;/span&gt;&lt;/pre&gt;" style="whiteSpace=wrap;html=1;align=left;" vertex="1" parent="fZkrWNqtU7C_VIOHloBP-11">
          <mxGeometry y="50" width="220.00000000000003" height="100" as="geometry" />
        </mxCell>
        <mxCell id="1c1d494c118603dd-3" value="API-GATEWAY" style="swimlane;html=1;startSize=20;" parent="1c1d494c118603dd-1" vertex="1">
          <mxGeometry x="250" y="20" width="250" height="970" as="geometry" />
        </mxCell>
        <mxCell id="fZkrWNqtU7C_VIOHloBP-14" value="" style="group" vertex="1" connectable="0" parent="1c1d494c118603dd-3">
          <mxGeometry x="15" y="80" width="220" height="290" as="geometry" />
        </mxCell>
        <mxCell id="fZkrWNqtU7C_VIOHloBP-15" value="UniversalDocumentDto&lt;br&gt;" style="whiteSpace=wrap;html=1;" vertex="1" parent="fZkrWNqtU7C_VIOHloBP-14">
          <mxGeometry width="220" height="87.00000000000001" as="geometry" />
        </mxCell>
        <mxCell id="fZkrWNqtU7C_VIOHloBP-16" value="&lt;pre style=&quot;line-height: 120% ; font-family: &amp;#34;jetbrains mono&amp;#34; , monospace&quot;&gt;&lt;p style=&quot;font-family: &amp;#34;jetbrains mono&amp;#34; , monospace&quot;&gt;&lt;span style=&quot;background-color: rgb(255 , 255 , 255)&quot;&gt;&lt;b&gt;&lt;font style=&quot;font-size: 14px&quot;&gt;+DocumentTypeId (int/enum);&lt;/font&gt;&lt;/b&gt;&lt;br&gt;+TotalPackageAmount (int);&lt;br&gt;&lt;/span&gt;&lt;span style=&quot;background-color: rgb(255 , 255 , 255)&quot;&gt;+PalletAmount (int);&lt;br&gt;&lt;/span&gt;&lt;span style=&quot;background-color: rgb(255 , 255 , 255)&quot;&gt;+GrossWeight (decimal);&lt;br&gt;&lt;/span&gt;&lt;span style=&quot;background-color: rgb(255 , 255 , 255)&quot;&gt;+IntercomersId (int);&lt;br&gt;&lt;/span&gt;&lt;span style=&quot;background-color: rgb(255 , 255 , 255)&quot;&gt;+TransferOfOwnershipDate (DateTime);&lt;br&gt;&lt;/span&gt;&lt;span style=&quot;background-color: rgb(255 , 255 , 255)&quot;&gt;+LicensePlate (string);&lt;br&gt;&lt;/span&gt;+DeclarationNumber (long);&lt;br&gt;&lt;span style=&quot;background-color: rgb(255 , 255 , 255)&quot;&gt;+TotalCustomFees (decimal);&lt;br&gt;&lt;/span&gt;&lt;span style=&quot;background-color: rgb(255 , 255 , 255)&quot;&gt;+TotalCustomDuties (decimal);&lt;br&gt;&lt;/span&gt;&lt;span style=&quot;background-color: rgb(255 , 255 , 255)&quot;&gt;+TotalVat (decimal);&lt;/span&gt;&lt;/p&gt;&lt;p style=&quot;font-family: &amp;#34;jetbrains mono&amp;#34; , monospace&quot;&gt;...&lt;/p&gt;&lt;p style=&quot;font-family: &amp;#34;jetbrains mono&amp;#34; , monospace&quot;&gt;+SomeField100500 (SomeType);&lt;/p&gt;&lt;p style=&quot;font-family: &amp;#34;jetbrains mono&amp;#34; , monospace&quot;&gt;&lt;br&gt;&lt;/p&gt;&lt;p style=&quot;font-family: &amp;#34;jetbrains mono&amp;#34; , monospace&quot;&gt;&lt;br&gt;&lt;/p&gt;&lt;/pre&gt;" style="whiteSpace=wrap;html=1;align=left;" vertex="1" parent="fZkrWNqtU7C_VIOHloBP-14">
          <mxGeometry y="87.00000000000001" width="220" height="203.00000000000003" as="geometry" />
        </mxCell>
        <mxCell id="1c1d494c118603dd-4" value="Operations.Documents" style="swimlane;html=1;startSize=20;" parent="1c1d494c118603dd-1" vertex="1">
          <mxGeometry x="500" y="20" width="250" height="970" as="geometry" />
        </mxCell>
        <mxCell id="1c1d494c118603dd-45" style="edgeStyle=none;rounded=0;html=1;labelBackgroundColor=none;startArrow=none;startFill=0;startSize=5;endArrow=classicThin;endFill=1;endSize=5;jettySize=auto;orthogonalLoop=1;strokeWidth=1;fontFamily=Verdana;fontSize=12" parent="1c1d494c118603dd-4" target="60571a20871a0731-5" edge="1">
          <mxGeometry relative="1" as="geometry">
            <mxPoint x="120" y="840" as="sourcePoint" />
          </mxGeometry>
        </mxCell>
        <mxCell id="fZkrWNqtU7C_VIOHloBP-17" value="" style="group" vertex="1" connectable="0" parent="1c1d494c118603dd-4">
          <mxGeometry x="10" y="40" width="230" height="140" as="geometry" />
        </mxCell>
        <mxCell id="fZkrWNqtU7C_VIOHloBP-18" value="CMR" style="whiteSpace=wrap;html=1;" vertex="1" parent="fZkrWNqtU7C_VIOHloBP-17">
          <mxGeometry width="230" height="42" as="geometry" />
        </mxCell>
        <mxCell id="fZkrWNqtU7C_VIOHloBP-19" value="&lt;pre style=&quot;font-family: &amp;#34;jetbrains mono&amp;#34; , monospace&quot;&gt;&lt;pre style=&quot;font-family: &amp;#34;jetbrains mono&amp;#34; , monospace&quot;&gt;&lt;span style=&quot;background-color: rgb(255 , 255 , 255)&quot;&gt;+TotalPackageAmount (int);&lt;br&gt;+PalletAmount (int);&lt;br&gt;+GrossWeight (decimal);&lt;br&gt;+IntercomersId (int);&lt;br&gt;+TransferOfOwnershipDate (DateTime);&lt;br&gt;+LicensePlate (string);&lt;/span&gt;&lt;/pre&gt;&lt;/pre&gt;" style="whiteSpace=wrap;html=1;align=left;" vertex="1" parent="fZkrWNqtU7C_VIOHloBP-17">
          <mxGeometry y="42" width="230" height="98" as="geometry" />
        </mxCell>
        <mxCell id="fZkrWNqtU7C_VIOHloBP-20" value="" style="group" vertex="1" connectable="0" parent="1c1d494c118603dd-4">
          <mxGeometry x="15" y="370" width="220" height="150" as="geometry" />
        </mxCell>
        <mxCell id="fZkrWNqtU7C_VIOHloBP-21" value="GoodDeclaration" style="whiteSpace=wrap;html=1;" vertex="1" parent="fZkrWNqtU7C_VIOHloBP-20">
          <mxGeometry width="220.00000000000003" height="50" as="geometry" />
        </mxCell>
        <mxCell id="fZkrWNqtU7C_VIOHloBP-22" value="&lt;pre style=&quot;font-family: &amp;#34;jetbrains mono&amp;#34; , monospace&quot;&gt;&lt;span style=&quot;background-color: rgb(255 , 255 , 255)&quot;&gt;+DeclarationNumber (long);&lt;br&gt;+TotalCustomFees (decimal);&lt;br&gt;+TotalCustomDuties (decimal);&lt;br&gt;+TotalVat (decimal);&lt;/span&gt;&lt;/pre&gt;" style="whiteSpace=wrap;html=1;align=left;" vertex="1" parent="fZkrWNqtU7C_VIOHloBP-20">
          <mxGeometry y="50" width="220.00000000000003" height="100" as="geometry" />
        </mxCell>
        <mxCell id="fZkrWNqtU7C_VIOHloBP-23" value="&#xa;&#xa;&lt;span style=&quot;color: rgb(0, 0, 0); font-family: helvetica; font-size: 12px; font-style: normal; font-weight: 400; letter-spacing: normal; text-align: center; text-indent: 0px; text-transform: none; word-spacing: 0px; background-color: rgb(248, 249, 250); display: inline; float: none;&quot;&gt;...&lt;/span&gt;&#xa;&#xa;" style="rounded=0;whiteSpace=wrap;html=1;" vertex="1" parent="1c1d494c118603dd-4">
          <mxGeometry x="60" y="240" width="120" height="60" as="geometry" />
        </mxCell>
        <mxCell id="1c1d494c118603dd-28" style="edgeStyle=orthogonalEdgeStyle;rounded=0;html=1;entryX=0.5;entryY=0;labelBackgroundColor=none;startArrow=none;startFill=0;startSize=5;endArrow=classicThin;endFill=1;endSize=5;jettySize=auto;orthogonalLoop=1;strokeWidth=1;fontFamily=Verdana;fontSize=12" parent="1c1d494c118603dd-1" source="60571a20871a0731-8" edge="1">
          <mxGeometry relative="1" as="geometry">
            <Array as="points">
              <mxPoint x="354" y="145" />
            </Array>
            <mxPoint x="353.5000000000002" y="180" as="targetPoint" />
          </mxGeometry>
        </mxCell>
        <mxCell id="fZkrWNqtU7C_VIOHloBP-5" value="Platform.Documents.Orchestrator" style="swimlane;html=1;startSize=20;" vertex="1" parent="1c1d494c118603dd-1">
          <mxGeometry x="750" y="20" width="250" height="970" as="geometry" />
        </mxCell>
        <mxCell id="fZkrWNqtU7C_VIOHloBP-6" style="edgeStyle=none;rounded=0;html=1;labelBackgroundColor=none;startArrow=none;startFill=0;startSize=5;endArrow=classicThin;endFill=1;endSize=5;jettySize=auto;orthogonalLoop=1;strokeWidth=1;fontFamily=Verdana;fontSize=12" edge="1" parent="fZkrWNqtU7C_VIOHloBP-5">
          <mxGeometry relative="1" as="geometry">
            <mxPoint x="120" y="840" as="sourcePoint" />
          </mxGeometry>
        </mxCell>
        <mxCell id="fZkrWNqtU7C_VIOHloBP-27" value="" style="group" vertex="1" connectable="0" parent="fZkrWNqtU7C_VIOHloBP-5">
          <mxGeometry x="15" y="100" width="220" height="280" as="geometry" />
        </mxCell>
        <mxCell id="fZkrWNqtU7C_VIOHloBP-28" value="GrpcDocument" style="whiteSpace=wrap;html=1;" vertex="1" parent="fZkrWNqtU7C_VIOHloBP-27">
          <mxGeometry width="220" height="84" as="geometry" />
        </mxCell>
        <mxCell id="fZkrWNqtU7C_VIOHloBP-29" value="&lt;pre style=&quot;line-height: 120% ; font-family: &amp;#34;jetbrains mono&amp;#34; , monospace&quot;&gt;&lt;p style=&quot;font-family: &amp;#34;jetbrains mono&amp;#34; , monospace&quot;&gt;&lt;b&gt;&lt;font style=&quot;font-size: 14px&quot;&gt;+DocumentTypeId (int/enum);&lt;/font&gt;&lt;/b&gt;&lt;span style=&quot;background-color: rgb(255 , 255 , 255)&quot;&gt;&lt;br&gt;&lt;/span&gt;&lt;/p&gt;&lt;p style=&quot;font-family: &amp;#34;jetbrains mono&amp;#34; , monospace&quot;&gt;&lt;span style=&quot;background-color: rgb(255 , 255 , 255)&quot;&gt;+SomeField1 (someType);&lt;/span&gt;&lt;/p&gt;&lt;p style=&quot;font-family: &amp;#34;jetbrains mono&amp;#34; , monospace&quot;&gt;&lt;span style=&quot;background-color: rgb(255 , 255 , 255)&quot;&gt;+SomeField2 (someType);&lt;br&gt;&lt;/span&gt;&lt;/p&gt;&lt;p&gt;&lt;span style=&quot;background-color: rgb(255 , 255 , 255)&quot;&gt;...&lt;/span&gt;&lt;/p&gt;&lt;p&gt;&lt;/p&gt;&lt;p style=&quot;font-family: &amp;#34;jetbrains mono&amp;#34; , monospace&quot;&gt;&lt;span style=&quot;background-color: rgb(255 , 255 , 255)&quot;&gt;+Details (JSONB);&lt;/span&gt;&lt;/p&gt;&lt;/pre&gt;" style="whiteSpace=wrap;html=1;align=left;" vertex="1" parent="fZkrWNqtU7C_VIOHloBP-27">
          <mxGeometry y="84" width="220" height="196" as="geometry" />
        </mxCell>
        <mxCell id="fZkrWNqtU7C_VIOHloBP-3" value="Platform.Documents" style="swimlane;html=1;startSize=20;" vertex="1" parent="1c1d494c118603dd-1">
          <mxGeometry x="1000" y="20" width="250" height="970" as="geometry" />
        </mxCell>
        <mxCell id="fZkrWNqtU7C_VIOHloBP-4" style="edgeStyle=none;rounded=0;html=1;labelBackgroundColor=none;startArrow=none;startFill=0;startSize=5;endArrow=classicThin;endFill=1;endSize=5;jettySize=auto;orthogonalLoop=1;strokeWidth=1;fontFamily=Verdana;fontSize=12" edge="1" parent="fZkrWNqtU7C_VIOHloBP-3">
          <mxGeometry relative="1" as="geometry">
            <mxPoint x="120" y="840" as="sourcePoint" />
          </mxGeometry>
        </mxCell>
        <mxCell id="fZkrWNqtU7C_VIOHloBP-24" value="" style="group" vertex="1" connectable="0" parent="fZkrWNqtU7C_VIOHloBP-3">
          <mxGeometry x="15" y="100" width="220" height="280" as="geometry" />
        </mxCell>
        <mxCell id="fZkrWNqtU7C_VIOHloBP-25" value="GrpcDocument" style="whiteSpace=wrap;html=1;" vertex="1" parent="fZkrWNqtU7C_VIOHloBP-24">
          <mxGeometry width="220" height="84" as="geometry" />
        </mxCell>
        <mxCell id="fZkrWNqtU7C_VIOHloBP-26" value="&lt;pre style=&quot;line-height: 120% ; font-family: &amp;#34;jetbrains mono&amp;#34; , monospace&quot;&gt;&lt;p style=&quot;font-family: &amp;#34;jetbrains mono&amp;#34; , monospace&quot;&gt;&lt;b&gt;&lt;font style=&quot;font-size: 14px&quot;&gt;+DocumentTypeId (int/enum);&lt;/font&gt;&lt;/b&gt;&lt;span style=&quot;background-color: rgb(255 , 255 , 255)&quot;&gt;&lt;br&gt;&lt;/span&gt;&lt;/p&gt;&lt;p style=&quot;font-family: &amp;#34;jetbrains mono&amp;#34; , monospace&quot;&gt;&lt;span style=&quot;background-color: rgb(255 , 255 , 255)&quot;&gt;+SomeField1 (someType);&lt;/span&gt;&lt;/p&gt;&lt;p style=&quot;font-family: &amp;#34;jetbrains mono&amp;#34; , monospace&quot;&gt;&lt;span style=&quot;background-color: rgb(255 , 255 , 255)&quot;&gt;+SomeField2 (someType);&lt;br&gt;&lt;/span&gt;&lt;/p&gt;&lt;p&gt;&lt;span style=&quot;background-color: rgb(255 , 255 , 255)&quot;&gt;...&lt;/span&gt;&lt;/p&gt;&lt;p&gt;&lt;/p&gt;&lt;p style=&quot;font-family: &amp;#34;jetbrains mono&amp;#34; , monospace&quot;&gt;&lt;span style=&quot;background-color: rgb(255 , 255 , 255)&quot;&gt;+Details (JSONB);&lt;/span&gt;&lt;/p&gt;&lt;/pre&gt;" style="whiteSpace=wrap;html=1;align=left;" vertex="1" parent="fZkrWNqtU7C_VIOHloBP-24">
          <mxGeometry y="84" width="220" height="196" as="geometry" />
        </mxCell>
      </root>
    </mxGraphModel>
  </diagram>
</mxfile>
